<?xml version="1.0" encoding="UTF-8" standalone="no"?>
<!DOCTYPE svg PUBLIC "-//W3C//DTD SVG 1.1//EN"
 "http://www.w3.org/Graphics/SVG/1.1/DTD/svg11.dtd">
<!-- Generated by graphviz version 8.1.0 (0)
 -->
<!-- Pages: 1 -->
<svg width="362pt" height="98pt"
 viewBox="0.00 0.00 361.75 98.00" xmlns="http://www.w3.org/2000/svg" xmlns:xlink="http://www.w3.org/1999/xlink">
<g id="graph0" class="graph" transform="scale(1 1) rotate(0) translate(4 94)">
<polygon fill="white" stroke="none" points="-4,4 -4,-94 357.75,-94 357.75,4 -4,4"/>
<!-- sk -->
<g id="node1" class="node">
<title>sk</title>
<polygon fill="none" stroke="black" points="54,-63 0,-63 0,-27 54,-27 54,-63"/>
<text text-anchor="middle" x="27" y="-39.95" font-family="Times,serif" font-size="14.00">skel</text>
</g>
<!-- skpro -->
<g id="node2" class="node">
<title>skpro</title>
<polygon fill="none" stroke="black" points="160,-63 90,-63 90,-27 160,-27 160,-63"/>
<text text-anchor="middle" x="125" y="-39.95" font-family="Times,serif" font-size="14.00">sk&#45;project</text>
</g>
<!-- sk&#45;&gt;skpro -->
<g id="edge1" class="edge">
<title>sk&#45;&gt;skpro</title>
<path fill="none" stroke="black" d="M54.49,-45C62.05,-45 70.51,-45 78.86,-45"/>
<polygon fill="black" stroke="black" points="78.68,-48.5 88.68,-45 78.68,-41.5 78.68,-48.5"/>
</g>
<!-- skrul -->
<g id="node5" class="node">
<title>skrul</title>
<polygon fill="none" stroke="black" points="250,-63 196,-63 196,-27 250,-27 250,-63"/>
<text text-anchor="middle" x="223" y="-39.95" font-family="Times,serif" font-size="14.00">sk&#45;rule</text>
</g>
<!-- skpro&#45;&gt;skrul -->
<g id="edge2" class="edge">
<title>skpro&#45;&gt;skrul</title>
<path fill="none" stroke="black" d="M160.39,-45C168.29,-45 176.72,-45 184.73,-45"/>
<polygon fill="black" stroke="black" points="184.68,-48.5 194.68,-45 184.68,-41.5 184.68,-48.5"/>
</g>
<!-- sksrc -->
<g id="node3" class="node">
<title>sksrc</title>
<polygon fill="none" stroke="black" points="353.75,-90 286,-90 286,-54 353.75,-54 353.75,-90"/>
<text text-anchor="middle" x="319.88" y="-66.95" font-family="Times,serif" font-size="14.00">sk&#45;source</text>
</g>
<!-- sktar -->
<g id="node4" class="node">
<title>sktar</title>
<polygon fill="none" stroke="black" points="351.5,-36 288.25,-36 288.25,0 351.5,0 351.5,-36"/>
<text text-anchor="middle" x="319.88" y="-12.95" font-family="Times,serif" font-size="14.00">sk&#45;target</text>
</g>
<!-- skrul&#45;&gt;sksrc -->
<g id="edge4" class="edge">
<title>skrul&#45;&gt;sksrc</title>
<path fill="none" stroke="black" d="M250.43,-52.52C258.14,-54.72 266.78,-57.17 275.25,-59.59"/>
<polygon fill="black" stroke="black" points="274.24,-63.22 284.82,-62.59 276.16,-56.49 274.24,-63.22"/>
</g>
<!-- skrul&#45;&gt;sktar -->
<g id="edge3" class="edge">
<title>skrul&#45;&gt;sktar</title>
<path fill="none" stroke="black" d="M250.43,-37.48C258.78,-35.1 268.23,-32.41 277.37,-29.81"/>
<polygon fill="black" stroke="black" points="278.23,-32.92 286.89,-26.82 276.31,-26.19 278.23,-32.92"/>
</g>
</g>
</svg>
