<?xml version="1.0" encoding="UTF-8" standalone="no"?>
<!DOCTYPE svg PUBLIC "-//W3C//DTD SVG 1.1//EN"
 "http://www.w3.org/Graphics/SVG/1.1/DTD/svg11.dtd">
<!-- Generated by graphviz version 8.1.0 (0)
 -->
<!-- Pages: 1 -->
<svg width="185pt" height="422pt"
 viewBox="0.00 0.00 184.50 422.00" xmlns="http://www.w3.org/2000/svg" xmlns:xlink="http://www.w3.org/1999/xlink">
<g id="graph0" class="graph" transform="scale(1 1) rotate(0) translate(4 418)">
<polygon fill="white" stroke="none" points="-4,4 -4,-418 180.5,-418 180.5,4 -4,4"/>
<!-- sk -->
<g id="node1" class="node">
<title>sk</title>
<polygon fill="none" stroke="black" points="54,-225 0,-225 0,-189 54,-189 54,-225"/>
<text text-anchor="middle" x="27" y="-201.95" font-family="Times,serif" font-size="14.00">skel</text>
</g>
<!-- skpro -->
<g id="node2" class="node">
<title>skpro</title>
<polygon fill="none" stroke="black" points="168.25,-414 98.25,-414 98.25,-378 168.25,-378 168.25,-414"/>
<text text-anchor="middle" x="133.25" y="-390.95" font-family="Times,serif" font-size="14.00">sk&#45;project</text>
</g>
<!-- sk&#45;&gt;skpro -->
<g id="edge1" class="edge">
<title>sk&#45;&gt;skpro</title>
<path fill="none" stroke="black" d="M31.13,-225.42C37.38,-257.61 54.04,-324.88 90,-369 90.32,-369.39 90.64,-369.77 90.97,-370.15"/>
<polygon fill="black" stroke="black" points="88.07,-372.18 97.71,-376.57 92.91,-367.12 88.07,-372.18"/>
</g>
<!-- sksrc -->
<g id="node3" class="node">
<title>sksrc</title>
<polygon fill="none" stroke="black" points="167.12,-360 99.38,-360 99.38,-324 167.12,-324 167.12,-360"/>
<text text-anchor="middle" x="133.25" y="-336.95" font-family="Times,serif" font-size="14.00">sk&#45;source</text>
</g>
<!-- sk&#45;&gt;sksrc -->
<g id="edge2" class="edge">
<title>sk&#45;&gt;sksrc</title>
<path fill="none" stroke="black" d="M35.19,-225.16C44.95,-248.13 64.19,-287.93 90,-315 90.56,-315.59 91.14,-316.17 91.73,-316.75"/>
<polygon fill="black" stroke="black" points="89.15,-320 99.04,-323.81 93.68,-314.66 89.15,-320"/>
</g>
<!-- sktar -->
<g id="node4" class="node">
<title>sktar</title>
<polygon fill="none" stroke="black" points="164.88,-306 101.62,-306 101.62,-270 164.88,-270 164.88,-306"/>
<text text-anchor="middle" x="133.25" y="-282.95" font-family="Times,serif" font-size="14.00">sk&#45;target</text>
</g>
<!-- sk&#45;&gt;sktar -->
<g id="edge3" class="edge">
<title>sk&#45;&gt;sktar</title>
<path fill="none" stroke="black" d="M47.48,-225.29C59.39,-236.13 75.14,-249.88 90,-261 91.1,-261.82 92.22,-262.64 93.36,-263.46"/>
<polygon fill="black" stroke="black" points="91.11,-266.85 101.33,-269.66 95.09,-261.1 91.11,-266.85"/>
</g>
<!-- skcom -->
<g id="node5" class="node">
<title>skcom</title>
<polygon fill="none" stroke="black" points="173.88,-252 92.62,-252 92.62,-216 173.88,-216 173.88,-252"/>
<text text-anchor="middle" x="133.25" y="-228.95" font-family="Times,serif" font-size="14.00">sk&#45;compiler</text>
</g>
<!-- sk&#45;&gt;skcom -->
<g id="edge4" class="edge">
<title>sk&#45;&gt;skcom</title>
<path fill="none" stroke="black" d="M54.31,-213.81C62.63,-215.97 72.14,-218.43 81.58,-220.88"/>
<polygon fill="black" stroke="black" points="80.58,-224.49 91.14,-223.61 82.34,-217.72 80.58,-224.49"/>
</g>
<!-- skscr -->
<g id="node6" class="node">
<title>skscr</title>
<polygon fill="none" stroke="black" points="164.5,-198 102,-198 102,-162 164.5,-162 164.5,-198"/>
<text text-anchor="middle" x="133.25" y="-174.95" font-family="Times,serif" font-size="14.00">sk&#45;script</text>
</g>
<!-- sk&#45;&gt;skscr -->
<g id="edge5" class="edge">
<title>sk&#45;&gt;skscr</title>
<path fill="none" stroke="black" d="M54.31,-200.19C65.41,-197.31 78.6,-193.89 90.95,-190.7"/>
<polygon fill="black" stroke="black" points="91.71,-193.86 100.51,-187.96 89.95,-187.08 91.71,-193.86"/>
</g>
<!-- skdoc -->
<g id="node7" class="node">
<title>skdoc</title>
<polygon fill="none" stroke="black" points="176.5,-144 90,-144 90,-108 176.5,-108 176.5,-144"/>
<text text-anchor="middle" x="133.25" y="-120.95" font-family="Times,serif" font-size="14.00">sk&#45;document</text>
</g>
<!-- sk&#45;&gt;skdoc -->
<g id="edge6" class="edge">
<title>sk&#45;&gt;skdoc</title>
<path fill="none" stroke="black" d="M47.48,-188.71C59.39,-177.87 75.14,-164.12 90,-153 91.1,-152.18 92.22,-151.36 93.36,-150.54"/>
<polygon fill="black" stroke="black" points="95.09,-152.9 101.33,-144.34 91.11,-147.15 95.09,-152.9"/>
</g>
<!-- skcfg -->
<g id="node8" class="node">
<title>skcfg</title>
<polygon fill="none" stroke="black" points="166.75,-90 99.75,-90 99.75,-54 166.75,-54 166.75,-90"/>
<text text-anchor="middle" x="133.25" y="-66.95" font-family="Times,serif" font-size="14.00">sk&#45;config</text>
</g>
<!-- sk&#45;&gt;skcfg -->
<g id="edge7" class="edge">
<title>sk&#45;&gt;skcfg</title>
<path fill="none" stroke="black" d="M35.19,-188.84C44.95,-165.87 64.19,-126.07 90,-99 90.56,-98.41 91.14,-97.83 91.73,-97.25"/>
<polygon fill="black" stroke="black" points="93.68,-99.34 99.04,-90.19 89.15,-94 93.68,-99.34"/>
</g>
<!-- skfil -->
<g id="node9" class="node">
<title>skfil</title>
<polygon fill="none" stroke="black" points="160.25,-36 106.25,-36 106.25,0 160.25,0 160.25,-36"/>
<text text-anchor="middle" x="133.25" y="-12.95" font-family="Times,serif" font-size="14.00">sk&#45;file</text>
</g>
<!-- sk&#45;&gt;skfil -->
<g id="edge8" class="edge">
<title>sk&#45;&gt;skfil</title>
<path fill="none" stroke="black" d="M31.13,-188.58C37.38,-156.39 54.04,-89.12 90,-45 92.2,-42.3 94.74,-39.79 97.47,-37.46"/>
<polygon fill="black" stroke="black" points="99.11,-39.86 105.04,-31.08 94.93,-34.25 99.11,-39.86"/>
</g>
</g>
</svg>
