<?xml version="1.0" encoding="UTF-8" standalone="no"?>
<!DOCTYPE svg PUBLIC "-//W3C//DTD SVG 1.1//EN"
 "http://www.w3.org/Graphics/SVG/1.1/DTD/svg11.dtd">
<!-- Generated by graphviz version 8.1.0 (0)
 -->
<!-- Pages: 1 -->
<svg width="977pt" height="454pt"
 viewBox="0.00 0.00 977.25 454.00" xmlns="http://www.w3.org/2000/svg" xmlns:xlink="http://www.w3.org/1999/xlink">
<g id="graph0" class="graph" transform="scale(1 1) rotate(0) translate(4 450)">
<polygon fill="white" stroke="none" points="-4,4 -4,-450 973.25,-450 973.25,4 -4,4"/>
<text text-anchor="middle" x="484.62" y="-428.7" font-family="Times,serif" font-size="14.00">CLOS API</text>
<!-- sk -->
<g id="node1" class="node">
<title>sk</title>
<polygon fill="none" stroke="black" points="601.38,-374.25 601.38,-410.25 702.88,-410.25 702.88,-374.25 601.38,-374.25"/>
<text text-anchor="middle" x="652.12" y="-387.2" font-family="Times,serif" font-size="14.00">(skel :ID :AST)</text>
</g>
<!-- skmet -->
<g id="node3" class="node">
<title>skmet</title>
<polygon fill="none" stroke="black" points="0,-217.5 0,-253.5 318.25,-253.5 318.25,-217.5 0,-217.5"/>
<text text-anchor="middle" x="159.12" y="-230.45" font-family="Times,serif" font-size="14.00">(sk&#45;meta :NAME :PATH :VERSION :DESCRIPTION)</text>
</g>
<!-- sk&#45;&gt;skmet -->
<g id="edge1" class="edge">
<title>sk&#45;&gt;skmet</title>
<path fill="none" stroke="black" d="M601.53,-380.25C549.92,-368.6 467.76,-348.91 398.12,-327 332.08,-306.22 257.75,-277.14 209.77,-257.61"/>
<polygon fill="black" stroke="black" points="211.23,-254.02 200.65,-253.47 208.58,-260.5 211.23,-254.02"/>
</g>
<!-- skcmd -->
<g id="node5" class="node">
<title>skcmd</title>
<polygon fill="none" stroke="black" points="407,-290.5 407,-326.5 503.25,-326.5 503.25,-290.5 407,-290.5"/>
<text text-anchor="middle" x="455.12" y="-303.45" font-family="Times,serif" font-size="14.00">(sk&#45;command)</text>
</g>
<!-- sk&#45;&gt;skcmd -->
<g id="edge9" class="edge">
<title>sk&#45;&gt;skcmd</title>
<path fill="none" stroke="black" d="M611.31,-374.31C580.67,-361.6 538.53,-344.11 505.74,-330.51"/>
<polygon fill="black" stroke="black" points="507.47,-327.02 496.89,-326.42 504.79,-333.48 507.47,-327.02"/>
</g>
<!-- sktar -->
<g id="node6" class="node">
<title>sktar</title>
<polygon fill="none" stroke="black" points="518,-217.5 518,-253.5 590.25,-253.5 590.25,-217.5 518,-217.5"/>
<text text-anchor="middle" x="554.12" y="-230.45" font-family="Times,serif" font-size="14.00">(sk&#45;target)</text>
</g>
<!-- sk&#45;&gt;sktar -->
<g id="edge6" class="edge">
<title>sk&#45;&gt;sktar</title>
<path fill="none" stroke="black" d="M641.45,-374.39C624.37,-347.42 590.76,-294.35 570.58,-262.49"/>
<polygon fill="black" stroke="black" points="573.09,-260.91 564.79,-254.33 567.18,-264.66 573.09,-260.91"/>
</g>
<!-- sksrc -->
<g id="node7" class="node">
<title>sksrc</title>
<polygon fill="none" stroke="black" points="608.75,-217.5 608.75,-253.5 685.5,-253.5 685.5,-217.5 608.75,-217.5"/>
<text text-anchor="middle" x="647.12" y="-230.45" font-family="Times,serif" font-size="14.00">(sk&#45;source)</text>
</g>
<!-- sk&#45;&gt;sksrc -->
<g id="edge8" class="edge">
<title>sk&#45;&gt;sksrc</title>
<path fill="none" stroke="black" d="M651.58,-374.39C650.72,-347.88 649.05,-296.17 648.02,-264.15"/>
<polygon fill="black" stroke="black" points="651.49,-264.22 647.67,-254.33 644.49,-264.44 651.49,-264.22"/>
</g>
<!-- skrul -->
<g id="node9" class="node">
<title>skrul</title>
<polygon fill="none" stroke="black" points="436.5,-144.5 436.5,-180.5 673.75,-180.5 673.75,-144.5 436.5,-144.5"/>
<text text-anchor="middle" x="555.12" y="-157.45" font-family="Times,serif" font-size="14.00">(sk&#45;rule :TARGET :SOURCE :RECIPE)</text>
</g>
<!-- sk&#45;&gt;skrul -->
<g id="edge7" class="edge">
<title>sk&#45;&gt;skrul</title>
<path fill="none" stroke="black" d="M659.44,-374.43C675.66,-335.96 711.87,-242.85 694.12,-217 684.43,-202.88 670.44,-192.48 655.03,-184.83"/>
<polygon fill="black" stroke="black" points="656.84,-181.35 646.28,-180.41 653.95,-187.73 656.84,-181.35"/>
</g>
<!-- skcfg -->
<g id="node12" class="node">
<title>skcfg</title>
<polygon fill="none" stroke="black" points="699.12,-290.5 699.12,-326.5 775.12,-326.5 775.12,-290.5 699.12,-290.5"/>
<text text-anchor="middle" x="737.12" y="-303.45" font-family="Times,serif" font-size="14.00">(sk&#45;config)</text>
</g>
<!-- sk&#45;&gt;skcfg -->
<g id="edge3" class="edge">
<title>sk&#45;&gt;skcfg</title>
<path fill="none" stroke="black" d="M669.74,-374.31C681.93,-362.58 698.35,-346.79 711.92,-333.74"/>
<polygon fill="black" stroke="black" points="713.75,-336.87 718.54,-327.42 708.9,-331.83 713.75,-336.87"/>
</g>
<!-- sksni -->
<g id="node13" class="node">
<title>sksni</title>
<polygon fill="none" stroke="black" points="792.88,-290.5 792.88,-326.5 873.38,-326.5 873.38,-290.5 792.88,-290.5"/>
<text text-anchor="middle" x="833.12" y="-303.45" font-family="Times,serif" font-size="14.00">(sk&#45;snippet)</text>
</g>
<!-- sk&#45;&gt;sksni -->
<g id="edge4" class="edge">
<title>sk&#45;&gt;sksni</title>
<path fill="none" stroke="black" d="M687.59,-374.38C695.64,-370.6 704.16,-366.63 712.12,-363 735.77,-352.21 762.16,-340.5 784.24,-330.8"/>
<polygon fill="black" stroke="black" points="785.31,-333.72 793.06,-326.49 782.49,-327.3 785.31,-333.72"/>
</g>
<!-- skabb -->
<g id="node14" class="node">
<title>skabb</title>
<polygon fill="none" stroke="black" points="891,-290.5 891,-326.5 969.25,-326.5 969.25,-290.5 891,-290.5"/>
<text text-anchor="middle" x="930.12" y="-303.45" font-family="Times,serif" font-size="14.00">(sk&#45;abbrev)</text>
</g>
<!-- sk&#45;&gt;skabb -->
<g id="edge5" class="edge">
<title>sk&#45;&gt;skabb</title>
<path fill="none" stroke="black" d="M684.57,-374.3C693.35,-370.18 702.96,-366.08 712.12,-363 782.18,-339.44 805.85,-347.49 880.83,-327.12"/>
<polygon fill="black" stroke="black" points="881.56,-330.27 890.24,-324.2 879.67,-323.53 881.56,-330.27"/>
</g>
<!-- methods -->
<g id="node2" class="node">
<title>methods</title>
<polygon fill="none" stroke="black" points="721,-363.5 721,-421 931.25,-421 931.25,-363.5 721,-363.5"/>
<text text-anchor="middle" x="826.12" y="-403.7" font-family="Times,serif" font-size="14.00">(sk&#45;compile sk&#45;expand sk&#45;build</text>
<text text-anchor="middle" x="826.12" y="-387.2" font-family="Times,serif" font-size="14.00">sk&#45;run sk&#45;init sk&#45;new sk&#45;save</text>
<text text-anchor="middle" x="826.12" y="-370.7" font-family="Times,serif" font-size="14.00">sk&#45;tangle sk&#45;weave sk&#45;call sk&#45;print)</text>
</g>
<!-- skvcs -->
<g id="node4" class="node">
<title>skvcs</title>
<polygon fill="none" stroke="black" points="103.12,-144.5 103.12,-180.5 215.12,-180.5 215.12,-144.5 103.12,-144.5"/>
<text text-anchor="middle" x="159.12" y="-157.45" font-family="Times,serif" font-size="14.00">(sk&#45;vc&#45;meta :VC)</text>
</g>
<!-- skmet&#45;&gt;skvcs -->
<g id="edge2" class="edge">
<title>skmet&#45;&gt;skvcs</title>
<path fill="none" stroke="black" d="M159.12,-217.67C159.12,-209.72 159.12,-200.01 159.12,-191.02"/>
<polygon fill="black" stroke="black" points="162.63,-191.21 159.12,-181.21 155.63,-191.21 162.63,-191.21"/>
</g>
<!-- skdoc -->
<g id="node10" class="node">
<title>skdoc</title>
<polygon fill="none" stroke="black" points="233.38,-144.5 233.38,-180.5 328.88,-180.5 328.88,-144.5 233.38,-144.5"/>
<text text-anchor="middle" x="281.12" y="-157.45" font-family="Times,serif" font-size="14.00">(sk&#45;document)</text>
</g>
<!-- skmet&#45;&gt;skdoc -->
<g id="edge11" class="edge">
<title>skmet&#45;&gt;skdoc</title>
<path fill="none" stroke="black" d="M188.04,-217.67C204.33,-208.19 224.89,-196.23 242.54,-185.96"/>
<polygon fill="black" stroke="black" points="244.11,-188.51 251,-180.45 240.59,-182.46 244.11,-188.51"/>
</g>
<!-- skscr -->
<g id="node11" class="node">
<title>skscr</title>
<polygon fill="none" stroke="black" points="347.38,-144.5 347.38,-180.5 418.88,-180.5 418.88,-144.5 347.38,-144.5"/>
<text text-anchor="middle" x="383.12" y="-157.45" font-family="Times,serif" font-size="14.00">(sk&#45;script)</text>
</g>
<!-- skmet&#45;&gt;skscr -->
<g id="edge12" class="edge">
<title>skmet&#45;&gt;skscr</title>
<path fill="none" stroke="black" d="M220.41,-217.51C252.71,-208.24 293.15,-196.16 337.68,-181.02"/>
<polygon fill="black" stroke="black" points="338.53,-184.08 346.85,-177.53 336.26,-177.46 338.53,-184.08"/>
</g>
<!-- skpro -->
<g id="node15" class="node">
<title>skpro</title>
<polygon fill="none" stroke="black" points="416.88,-0.5 416.88,-107.5 521.38,-107.5 521.38,-0.5 416.88,-0.5"/>
<text text-anchor="start" x="424.88" y="-90.2" font-family="Times,serif" font-size="14.00">(sk&#45;project</text>
<text text-anchor="start" x="424.88" y="-73.7" font-family="Times,serif" font-size="14.00">:RULES</text>
<text text-anchor="start" x="424.88" y="-57.2" font-family="Times,serif" font-size="14.00">:DOCUMENTS</text>
<text text-anchor="start" x="424.88" y="-40.7" font-family="Times,serif" font-size="14.00">:SCRIPTS</text>
<text text-anchor="start" x="424.88" y="-24.2" font-family="Times,serif" font-size="14.00">:SNIPPETS</text>
<text text-anchor="start" x="424.88" y="-7.7" font-family="Times,serif" font-size="14.00">:ABBREVS)</text>
</g>
<!-- skvcs&#45;&gt;skpro -->
<g id="edge10" class="edge">
<title>skvcs&#45;&gt;skpro</title>
<path fill="none" stroke="black" d="M208.59,-144.51C262.37,-126.03 348.43,-96.47 406.79,-76.41"/>
<polygon fill="black" stroke="black" points="407.67,-79.47 415.99,-72.91 405.4,-72.85 407.67,-79.47"/>
</g>
<!-- skrec -->
<g id="node8" class="node">
<title>skrec</title>
<polygon fill="none" stroke="black" points="336.62,-217.5 336.62,-253.5 499.62,-253.5 499.62,-217.5 336.62,-217.5"/>
<text text-anchor="middle" x="418.12" y="-230.45" font-family="Times,serif" font-size="14.00">(sk&#45;recipe :COMMANDS)</text>
</g>
<!-- skcmd&#45;&gt;skrec -->
<g id="edge21" class="edge">
<title>skcmd&#45;&gt;skrec</title>
<path fill="none" stroke="black" d="M446.36,-290.67C442.03,-282.36 436.7,-272.14 431.84,-262.83"/>
<polygon fill="black" stroke="black" points="434.56,-261.46 426.83,-254.21 428.35,-264.69 434.56,-261.46"/>
</g>
<!-- sktar&#45;&gt;skrul -->
<g id="edge18" class="edge">
<title>sktar&#45;&gt;skrul</title>
<path fill="none" stroke="black" d="M554.36,-217.67C554.47,-209.72 554.61,-200.01 554.74,-191.02"/>
<polygon fill="black" stroke="black" points="558.25,-191.25 554.89,-181.21 551.25,-191.15 558.25,-191.25"/>
</g>
<!-- sksrc&#45;&gt;skrul -->
<g id="edge19" class="edge">
<title>sksrc&#45;&gt;skrul</title>
<path fill="none" stroke="black" d="M625.32,-217.67C613.49,-208.54 598.68,-197.11 585.71,-187.11"/>
<polygon fill="black" stroke="black" points="588.15,-183.79 578.09,-180.45 583.87,-189.33 588.15,-183.79"/>
</g>
<!-- skrec&#45;&gt;skrul -->
<g id="edge20" class="edge">
<title>skrec&#45;&gt;skrul</title>
<path fill="none" stroke="black" d="M450.59,-217.67C469.22,-208.02 492.83,-195.79 512.89,-185.39"/>
<polygon fill="black" stroke="black" points="514.15,-188.16 521.42,-180.45 510.93,-181.95 514.15,-188.16"/>
</g>
<!-- skrul&#45;&gt;skpro -->
<g id="edge13" class="edge">
<title>skrul&#45;&gt;skpro</title>
<path fill="none" stroke="black" d="M541.69,-144.86C535.14,-136.75 526.81,-126.44 518.16,-115.72"/>
<polygon fill="black" stroke="black" points="520.5,-114.05 511.5,-108.47 515.05,-118.45 520.5,-114.05"/>
</g>
<!-- skdoc&#45;&gt;skpro -->
<g id="edge15" class="edge">
<title>skdoc&#45;&gt;skpro</title>
<path fill="none" stroke="black" d="M310.91,-144.62C336.83,-129.94 375.22,-108.2 407.69,-89.8"/>
<polygon fill="black" stroke="black" points="409.14,-92.44 416.11,-84.46 405.69,-86.35 409.14,-92.44"/>
</g>
<!-- skscr&#45;&gt;skpro -->
<g id="edge14" class="edge">
<title>skscr&#45;&gt;skpro</title>
<path fill="none" stroke="black" d="M396.56,-144.86C403.11,-136.75 411.44,-126.44 420.09,-115.72"/>
<polygon fill="black" stroke="black" points="423.2,-118.45 426.75,-108.47 417.75,-114.05 423.2,-118.45"/>
</g>
<!-- sksni&#45;&gt;skpro -->
<g id="edge16" class="edge">
<title>sksni&#45;&gt;skpro</title>
<path fill="none" stroke="black" d="M821.58,-290.67C798.63,-258.3 744.17,-186.78 683.12,-144 636.6,-111.4 576.31,-87.69 531.58,-72.97"/>
<polygon fill="black" stroke="black" points="532.73,-69.35 522.14,-69.61 530.58,-76.01 532.73,-69.35"/>
</g>
<!-- skabb&#45;&gt;skpro -->
<g id="edge17" class="edge">
<title>skabb&#45;&gt;skpro</title>
<path fill="none" stroke="black" d="M912.6,-290.72C878.09,-258.43 797.79,-187.04 719.12,-144 658.63,-110.9 583.4,-86.08 531.36,-71.17"/>
<polygon fill="black" stroke="black" points="532.52,-67.58 521.94,-68.23 530.62,-74.32 532.52,-67.58"/>
</g>
</g>
</svg>
