<?xml version="1.0" encoding="UTF-8" standalone="no"?>
<!DOCTYPE svg PUBLIC "-//W3C//DTD SVG 1.1//EN"
 "http://www.w3.org/Graphics/SVG/1.1/DTD/svg11.dtd">
<!-- Generated by graphviz version 8.1.0 (0)
 -->
<!-- Pages: 1 -->
<svg width="602pt" height="383pt"
 viewBox="0.00 0.00 601.50 383.00" xmlns="http://www.w3.org/2000/svg" xmlns:xlink="http://www.w3.org/1999/xlink">
<g id="graph0" class="graph" transform="scale(1 1) rotate(0) translate(4 379)">
<polygon fill="white" stroke="none" points="-4,4 -4,-379 597.5,-379 597.5,4 -4,4"/>
<text text-anchor="middle" x="296.75" y="-357.7" font-family="Times,serif" font-size="14.00">CLOS API</text>
<!-- sk -->
<g id="node1" class="node">
<title>sk</title>
<polygon fill="none" stroke="black" points="263.62,-303.25 263.62,-339.25 365.12,-339.25 365.12,-303.25 263.62,-303.25"/>
<text text-anchor="middle" x="314.38" y="-316.2" font-family="Times,serif" font-size="14.00">(skel :ID :AST)</text>
</g>
<!-- skpro -->
<g id="node3" class="node">
<title>skpro</title>
<polygon fill="none" stroke="black" points="66.75,-219.5 66.75,-255.5 196,-255.5 196,-219.5 66.75,-219.5"/>
<text text-anchor="middle" x="131.38" y="-232.45" font-family="Times,serif" font-size="14.00">(sk&#45;project :RULES)</text>
</g>
<!-- sk&#45;&gt;skpro -->
<g id="edge1" class="edge">
<title>sk&#45;&gt;skpro</title>
<path fill="none" stroke="black" d="M276.46,-303.31C248.24,-290.71 209.53,-273.41 179.19,-259.86"/>
<polygon fill="black" stroke="black" points="180.8,-256.3 170.24,-255.42 177.95,-262.69 180.8,-256.3"/>
</g>
<!-- skdoc -->
<g id="node9" class="node">
<title>skdoc</title>
<polygon fill="none" stroke="black" points="213.62,-219.5 213.62,-255.5 309.12,-255.5 309.12,-219.5 213.62,-219.5"/>
<text text-anchor="middle" x="261.38" y="-232.45" font-family="Times,serif" font-size="14.00">(sk&#45;document)</text>
</g>
<!-- sk&#45;&gt;skdoc -->
<g id="edge2" class="edge">
<title>sk&#45;&gt;skdoc</title>
<path fill="none" stroke="black" d="M303.39,-303.31C296.14,-292.13 286.5,-277.26 278.29,-264.59"/>
<polygon fill="black" stroke="black" points="280.72,-262.9 272.34,-256.42 274.85,-266.71 280.72,-262.9"/>
</g>
<!-- sksni -->
<g id="node10" class="node">
<title>sksni</title>
<polygon fill="none" stroke="black" points="327.12,-219.5 327.12,-255.5 407.62,-255.5 407.62,-219.5 327.12,-219.5"/>
<text text-anchor="middle" x="367.38" y="-232.45" font-family="Times,serif" font-size="14.00">(sk&#45;snippet)</text>
</g>
<!-- sk&#45;&gt;sksni -->
<g id="edge3" class="edge">
<title>sk&#45;&gt;sksni</title>
<path fill="none" stroke="black" d="M325.36,-303.31C332.61,-292.13 342.25,-277.26 350.46,-264.59"/>
<polygon fill="black" stroke="black" points="353.9,-266.71 356.41,-256.42 348.03,-262.9 353.9,-266.71"/>
</g>
<!-- skcfg -->
<g id="node11" class="node">
<title>skcfg</title>
<polygon fill="none" stroke="black" points="425.38,-219.5 425.38,-255.5 501.38,-255.5 501.38,-219.5 425.38,-219.5"/>
<text text-anchor="middle" x="463.38" y="-232.45" font-family="Times,serif" font-size="14.00">(sk&#45;config)</text>
</g>
<!-- sk&#45;&gt;skcfg -->
<g id="edge4" class="edge">
<title>sk&#45;&gt;skcfg</title>
<path fill="none" stroke="black" d="M345.25,-303.31C367.82,-290.93 398.65,-274.01 423.15,-260.57"/>
<polygon fill="black" stroke="black" points="424.46,-263.3 431.54,-255.42 421.09,-257.16 424.46,-263.3"/>
</g>
<!-- methods -->
<g id="node2" class="node">
<title>methods</title>
<polygon fill="none" stroke="black" points="383.25,-292.5 383.25,-350 593.5,-350 593.5,-292.5 383.25,-292.5"/>
<text text-anchor="middle" x="488.38" y="-332.7" font-family="Times,serif" font-size="14.00">(sk&#45;compile sk&#45;expand sk&#45;build</text>
<text text-anchor="middle" x="488.38" y="-316.2" font-family="Times,serif" font-size="14.00">sk&#45;run sk&#45;init sk&#45;new sk&#45;save</text>
<text text-anchor="middle" x="488.38" y="-299.7" font-family="Times,serif" font-size="14.00">sk&#45;tangle sk&#45;weave sk&#45;call sk&#45;print)</text>
</g>
<!-- skrul -->
<g id="node8" class="node">
<title>skrul</title>
<polygon fill="none" stroke="black" points="12.75,-146.5 12.75,-182.5 250,-182.5 250,-146.5 12.75,-146.5"/>
<text text-anchor="middle" x="131.38" y="-159.45" font-family="Times,serif" font-size="14.00">(sk&#45;rule :TARGET :SOURCE :RECIPE)</text>
</g>
<!-- skpro&#45;&gt;skrul -->
<g id="edge5" class="edge">
<title>skpro&#45;&gt;skrul</title>
<path fill="none" stroke="black" d="M131.38,-219.67C131.38,-211.72 131.38,-202.01 131.38,-193.02"/>
<polygon fill="black" stroke="black" points="134.88,-193.21 131.38,-183.21 127.88,-193.21 134.88,-193.21"/>
</g>
<!-- sksrc -->
<g id="node4" class="node">
<title>sksrc</title>
<polygon fill="none" stroke="black" points="0,-73.5 0,-109.5 76.75,-109.5 76.75,-73.5 0,-73.5"/>
<text text-anchor="middle" x="38.38" y="-86.45" font-family="Times,serif" font-size="14.00">(sk&#45;source)</text>
</g>
<!-- sktar -->
<g id="node5" class="node">
<title>sktar</title>
<polygon fill="none" stroke="black" points="95.25,-73.5 95.25,-109.5 167.5,-109.5 167.5,-73.5 95.25,-73.5"/>
<text text-anchor="middle" x="131.38" y="-86.45" font-family="Times,serif" font-size="14.00">(sk&#45;target)</text>
</g>
<!-- skcmd -->
<g id="node6" class="node">
<title>skcmd</title>
<polygon fill="none" stroke="black" points="219.25,-0.5 219.25,-36.5 315.5,-36.5 315.5,-0.5 219.25,-0.5"/>
<text text-anchor="middle" x="267.38" y="-13.45" font-family="Times,serif" font-size="14.00">(sk&#45;command)</text>
</g>
<!-- skrec -->
<g id="node7" class="node">
<title>skrec</title>
<polygon fill="none" stroke="black" points="185.88,-73.5 185.88,-109.5 348.88,-109.5 348.88,-73.5 185.88,-73.5"/>
<text text-anchor="middle" x="267.38" y="-86.45" font-family="Times,serif" font-size="14.00">(sk&#45;recipe :COMMANDS)</text>
</g>
<!-- skrec&#45;&gt;skcmd -->
<g id="edge9" class="edge">
<title>skrec&#45;&gt;skcmd</title>
<path fill="none" stroke="black" d="M267.38,-73.67C267.38,-65.72 267.38,-56.01 267.38,-47.02"/>
<polygon fill="black" stroke="black" points="270.88,-47.21 267.38,-37.21 263.88,-47.21 270.88,-47.21"/>
</g>
<!-- skrul&#45;&gt;sksrc -->
<g id="edge7" class="edge">
<title>skrul&#45;&gt;sksrc</title>
<path fill="none" stroke="black" d="M109.34,-146.67C97.38,-137.54 82.4,-126.11 69.29,-116.11"/>
<polygon fill="black" stroke="black" points="71.65,-112.74 61.58,-109.45 67.4,-118.3 71.65,-112.74"/>
</g>
<!-- skrul&#45;&gt;sktar -->
<g id="edge6" class="edge">
<title>skrul&#45;&gt;sktar</title>
<path fill="none" stroke="black" d="M131.38,-146.67C131.38,-138.72 131.38,-129.01 131.38,-120.02"/>
<polygon fill="black" stroke="black" points="134.88,-120.21 131.38,-110.21 127.88,-120.21 134.88,-120.21"/>
</g>
<!-- skrul&#45;&gt;skrec -->
<g id="edge8" class="edge">
<title>skrul&#45;&gt;skrec</title>
<path fill="none" stroke="black" d="M163.61,-146.67C182.02,-137.06 205.32,-124.9 225.18,-114.53"/>
<polygon fill="black" stroke="black" points="226.66,-117.18 233.9,-109.45 223.42,-110.98 226.66,-117.18"/>
</g>
</g>
</svg>
