<?xml version="1.0" encoding="UTF-8" standalone="no"?>
<!DOCTYPE svg PUBLIC "-//W3C//DTD SVG 1.1//EN"
 "http://www.w3.org/Graphics/SVG/1.1/DTD/svg11.dtd">
<!-- Generated by graphviz version 8.1.0 (0)
 -->
<!-- Pages: 1 -->
<svg width="939pt" height="454pt"
 viewBox="0.00 0.00 939.25 454.00" xmlns="http://www.w3.org/2000/svg" xmlns:xlink="http://www.w3.org/1999/xlink">
<g id="graph0" class="graph" transform="scale(1 1) rotate(0) translate(4 450)">
<polygon fill="white" stroke="none" points="-4,4 -4,-450 935.25,-450 935.25,4 -4,4"/>
<text text-anchor="middle" x="465.62" y="-428.7" font-family="Times,serif" font-size="14.00">CLOS API</text>
<!-- sk -->
<g id="node1" class="node">
<title>sk</title>
<polygon fill="none" stroke="black" points="601.38,-374.25 601.38,-410.25 702.88,-410.25 702.88,-374.25 601.38,-374.25"/>
<text text-anchor="middle" x="652.12" y="-387.2" font-family="Times,serif" font-size="14.00">(skel :ID :AST)</text>
</g>
<!-- skmet -->
<g id="node3" class="node">
<title>skmet</title>
<polygon fill="none" stroke="black" points="0,-217.5 0,-253.5 318.25,-253.5 318.25,-217.5 0,-217.5"/>
<text text-anchor="middle" x="159.12" y="-230.45" font-family="Times,serif" font-size="14.00">(sk&#45;meta :NAME :PATH :VERSION :DESCRIPTION)</text>
</g>
<!-- sk&#45;&gt;skmet -->
<g id="edge1" class="edge">
<title>sk&#45;&gt;skmet</title>
<path fill="none" stroke="black" d="M601.57,-379.64C551.36,-367.74 472.36,-348.06 405.12,-327 337.42,-305.8 260.94,-276.85 211.48,-257.46"/>
<polygon fill="black" stroke="black" points="212.94,-253.88 202.35,-253.47 210.38,-260.39 212.94,-253.88"/>
</g>
<!-- skcmd -->
<g id="node4" class="node">
<title>skcmd</title>
<polygon fill="none" stroke="black" points="414,-290.5 414,-326.5 510.25,-326.5 510.25,-290.5 414,-290.5"/>
<text text-anchor="middle" x="462.12" y="-303.45" font-family="Times,serif" font-size="14.00">(sk&#45;command)</text>
</g>
<!-- sk&#45;&gt;skcmd -->
<g id="edge8" class="edge">
<title>sk&#45;&gt;skcmd</title>
<path fill="none" stroke="black" d="M612.76,-374.31C583.33,-361.65 542.91,-344.26 511.35,-330.68"/>
<polygon fill="black" stroke="black" points="513.01,-327.15 502.44,-326.42 510.25,-333.58 513.01,-327.15"/>
</g>
<!-- sktar -->
<g id="node5" class="node">
<title>sktar</title>
<polygon fill="none" stroke="black" points="518,-217.5 518,-253.5 590.25,-253.5 590.25,-217.5 518,-217.5"/>
<text text-anchor="middle" x="554.12" y="-230.45" font-family="Times,serif" font-size="14.00">(sk&#45;target)</text>
</g>
<!-- sk&#45;&gt;sktar -->
<g id="edge5" class="edge">
<title>sk&#45;&gt;sktar</title>
<path fill="none" stroke="black" d="M641.45,-374.39C624.37,-347.42 590.76,-294.35 570.58,-262.49"/>
<polygon fill="black" stroke="black" points="573.09,-260.91 564.79,-254.33 567.18,-264.66 573.09,-260.91"/>
</g>
<!-- sksrc -->
<g id="node6" class="node">
<title>sksrc</title>
<polygon fill="none" stroke="black" points="608.75,-217.5 608.75,-253.5 685.5,-253.5 685.5,-217.5 608.75,-217.5"/>
<text text-anchor="middle" x="647.12" y="-230.45" font-family="Times,serif" font-size="14.00">(sk&#45;source)</text>
</g>
<!-- sk&#45;&gt;sksrc -->
<g id="edge7" class="edge">
<title>sk&#45;&gt;sksrc</title>
<path fill="none" stroke="black" d="M651.58,-374.39C650.72,-347.88 649.05,-296.17 648.02,-264.15"/>
<polygon fill="black" stroke="black" points="651.49,-264.22 647.67,-254.33 644.49,-264.44 651.49,-264.22"/>
</g>
<!-- skrul -->
<g id="node8" class="node">
<title>skrul</title>
<polygon fill="none" stroke="black" points="435.5,-144.5 435.5,-180.5 672.75,-180.5 672.75,-144.5 435.5,-144.5"/>
<text text-anchor="middle" x="554.12" y="-157.45" font-family="Times,serif" font-size="14.00">(sk&#45;rule :TARGET :SOURCE :RECIPE)</text>
</g>
<!-- sk&#45;&gt;skrul -->
<g id="edge6" class="edge">
<title>sk&#45;&gt;skrul</title>
<path fill="none" stroke="black" d="M659.44,-374.43C675.67,-335.95 711.9,-242.82 694.12,-217 684.41,-202.89 670.44,-192.5 655.03,-184.85"/>
<polygon fill="black" stroke="black" points="656.83,-181.37 646.28,-180.43 653.94,-187.74 656.83,-181.37"/>
</g>
<!-- skcfg -->
<g id="node11" class="node">
<title>skcfg</title>
<polygon fill="none" stroke="black" points="699.12,-290.5 699.12,-326.5 775.12,-326.5 775.12,-290.5 699.12,-290.5"/>
<text text-anchor="middle" x="737.12" y="-303.45" font-family="Times,serif" font-size="14.00">(sk&#45;config)</text>
</g>
<!-- sk&#45;&gt;skcfg -->
<g id="edge2" class="edge">
<title>sk&#45;&gt;skcfg</title>
<path fill="none" stroke="black" d="M669.74,-374.31C681.93,-362.58 698.35,-346.79 711.92,-333.74"/>
<polygon fill="black" stroke="black" points="713.75,-336.87 718.54,-327.42 708.9,-331.83 713.75,-336.87"/>
</g>
<!-- sksni -->
<g id="node12" class="node">
<title>sksni</title>
<polygon fill="none" stroke="black" points="725.88,-144.5 725.88,-180.5 806.38,-180.5 806.38,-144.5 725.88,-144.5"/>
<text text-anchor="middle" x="766.12" y="-157.45" font-family="Times,serif" font-size="14.00">(sk&#45;snippet)</text>
</g>
<!-- sk&#45;&gt;sksni -->
<g id="edge3" class="edge">
<title>sk&#45;&gt;sksni</title>
<path fill="none" stroke="black" d="M688.04,-374.33C726.64,-356.07 782.71,-329.26 784.12,-327 810.47,-284.87 792.69,-224.48 778.59,-190.11"/>
<polygon fill="black" stroke="black" points="781.55,-189.14 774.39,-181.33 775.12,-191.9 781.55,-189.14"/>
</g>
<!-- skabb -->
<g id="node13" class="node">
<title>skabb</title>
<polygon fill="none" stroke="black" points="831,-290.5 831,-326.5 909.25,-326.5 909.25,-290.5 831,-290.5"/>
<text text-anchor="middle" x="870.12" y="-303.45" font-family="Times,serif" font-size="14.00">(sk&#45;abbrev)</text>
</g>
<!-- sk&#45;&gt;skabb -->
<g id="edge4" class="edge">
<title>sk&#45;&gt;skabb</title>
<path fill="none" stroke="black" d="M686.41,-374.29C694.75,-370.39 703.69,-366.4 712.12,-363 722.58,-358.79 778.74,-339.91 821.15,-325.77"/>
<polygon fill="black" stroke="black" points="821.95,-328.86 830.33,-322.38 819.74,-322.22 821.95,-328.86"/>
</g>
<!-- methods -->
<g id="node2" class="node">
<title>methods</title>
<polygon fill="none" stroke="black" points="721,-363.5 721,-421 931.25,-421 931.25,-363.5 721,-363.5"/>
<text text-anchor="middle" x="826.12" y="-403.7" font-family="Times,serif" font-size="14.00">(sk&#45;compile sk&#45;expand sk&#45;build</text>
<text text-anchor="middle" x="826.12" y="-387.2" font-family="Times,serif" font-size="14.00">sk&#45;run sk&#45;init sk&#45;new sk&#45;save</text>
<text text-anchor="middle" x="826.12" y="-370.7" font-family="Times,serif" font-size="14.00">sk&#45;tangle sk&#45;weave sk&#45;call sk&#45;print)</text>
</g>
<!-- skdoc -->
<g id="node9" class="node">
<title>skdoc</title>
<polygon fill="none" stroke="black" points="122.38,-144.5 122.38,-180.5 217.88,-180.5 217.88,-144.5 122.38,-144.5"/>
<text text-anchor="middle" x="170.12" y="-157.45" font-family="Times,serif" font-size="14.00">(sk&#45;document)</text>
</g>
<!-- skmet&#45;&gt;skdoc -->
<g id="edge10" class="edge">
<title>skmet&#45;&gt;skdoc</title>
<path fill="none" stroke="black" d="M161.73,-217.67C162.96,-209.72 164.47,-200.01 165.86,-191.02"/>
<polygon fill="black" stroke="black" points="169.46,-191.62 167.54,-181.21 162.55,-190.55 169.46,-191.62"/>
</g>
<!-- skscr -->
<g id="node10" class="node">
<title>skscr</title>
<polygon fill="none" stroke="black" points="277.38,-144.5 277.38,-180.5 348.88,-180.5 348.88,-144.5 277.38,-144.5"/>
<text text-anchor="middle" x="313.12" y="-157.45" font-family="Times,serif" font-size="14.00">(sk&#45;script)</text>
</g>
<!-- skmet&#45;&gt;skscr -->
<g id="edge11" class="edge">
<title>skmet&#45;&gt;skscr</title>
<path fill="none" stroke="black" d="M195.62,-217.67C217.16,-207.74 244.61,-195.09 267.56,-184.51"/>
<polygon fill="black" stroke="black" points="268.81,-187.33 276.42,-179.96 265.88,-180.97 268.81,-187.33"/>
</g>
<!-- skpro -->
<g id="node14" class="node">
<title>skpro</title>
<polygon fill="none" stroke="black" points="422.88,-0.5 422.88,-107.5 527.38,-107.5 527.38,-0.5 422.88,-0.5"/>
<text text-anchor="start" x="430.88" y="-90.2" font-family="Times,serif" font-size="14.00">(sk&#45;project</text>
<text text-anchor="start" x="430.88" y="-73.7" font-family="Times,serif" font-size="14.00">:RULES</text>
<text text-anchor="start" x="430.88" y="-57.2" font-family="Times,serif" font-size="14.00">:DOCUMENTS</text>
<text text-anchor="start" x="430.88" y="-40.7" font-family="Times,serif" font-size="14.00">:SCRIPTS</text>
<text text-anchor="start" x="430.88" y="-24.2" font-family="Times,serif" font-size="14.00">:SNIPPETS</text>
<text text-anchor="start" x="430.88" y="-7.7" font-family="Times,serif" font-size="14.00">:ABBREVS)</text>
</g>
<!-- skmet&#45;&gt;skpro -->
<g id="edge9" class="edge">
<title>skmet&#45;&gt;skpro</title>
<path fill="none" stroke="black" d="M265.3,-217.55C296.67,-209.55 330.09,-197.9 358.12,-181 385.91,-164.25 411.19,-139.01 431.09,-115.51"/>
<polygon fill="black" stroke="black" points="434.21,-118.22 437.9,-108.29 428.82,-113.76 434.21,-118.22"/>
</g>
<!-- skrec -->
<g id="node7" class="node">
<title>skrec</title>
<polygon fill="none" stroke="black" points="336.62,-217.5 336.62,-253.5 499.62,-253.5 499.62,-217.5 336.62,-217.5"/>
<text text-anchor="middle" x="418.12" y="-230.45" font-family="Times,serif" font-size="14.00">(sk&#45;recipe :COMMANDS)</text>
</g>
<!-- skcmd&#45;&gt;skrec -->
<g id="edge20" class="edge">
<title>skcmd&#45;&gt;skrec</title>
<path fill="none" stroke="black" d="M451.7,-290.67C446.49,-282.27 440.08,-271.92 434.26,-262.53"/>
<polygon fill="black" stroke="black" points="436.72,-260.86 428.48,-254.21 430.77,-264.55 436.72,-260.86"/>
</g>
<!-- sktar&#45;&gt;skrul -->
<g id="edge17" class="edge">
<title>sktar&#45;&gt;skrul</title>
<path fill="none" stroke="black" d="M554.12,-217.67C554.12,-209.72 554.12,-200.01 554.12,-191.02"/>
<polygon fill="black" stroke="black" points="557.63,-191.21 554.12,-181.21 550.63,-191.21 557.63,-191.21"/>
</g>
<!-- sksrc&#45;&gt;skrul -->
<g id="edge18" class="edge">
<title>sksrc&#45;&gt;skrul</title>
<path fill="none" stroke="black" d="M625.09,-217.67C613.13,-208.54 598.15,-197.11 585.04,-187.11"/>
<polygon fill="black" stroke="black" points="587.4,-183.74 577.33,-180.45 583.15,-189.3 587.4,-183.74"/>
</g>
<!-- skrec&#45;&gt;skrul -->
<g id="edge19" class="edge">
<title>skrec&#45;&gt;skrul</title>
<path fill="none" stroke="black" d="M450.36,-217.67C468.77,-208.06 492.07,-195.9 511.93,-185.53"/>
<polygon fill="black" stroke="black" points="513.41,-188.18 520.65,-180.45 510.17,-181.98 513.41,-188.18"/>
</g>
<!-- skrul&#45;&gt;skpro -->
<g id="edge12" class="edge">
<title>skrul&#45;&gt;skpro</title>
<path fill="none" stroke="black" d="M541.78,-144.86C535.82,-136.83 528.27,-126.64 520.4,-116.03"/>
<polygon fill="black" stroke="black" points="522.82,-114.42 514.05,-108.47 517.19,-118.59 522.82,-114.42"/>
</g>
<!-- skdoc&#45;&gt;skpro -->
<g id="edge14" class="edge">
<title>skdoc&#45;&gt;skpro</title>
<path fill="none" stroke="black" d="M217.78,-144.86C270.33,-126.51 355.08,-96.92 412.85,-76.74"/>
<polygon fill="black" stroke="black" points="413.67,-79.82 421.95,-73.22 411.36,-73.21 413.67,-79.82"/>
</g>
<!-- skscr&#45;&gt;skpro -->
<g id="edge13" class="edge">
<title>skscr&#45;&gt;skpro</title>
<path fill="none" stroke="black" d="M338.79,-144.62C358.99,-131.35 387.96,-112.3 414.02,-95.17"/>
<polygon fill="black" stroke="black" points="415.66,-97.63 422.09,-89.21 411.81,-91.78 415.66,-97.63"/>
</g>
<!-- sksni&#45;&gt;skpro -->
<g id="edge15" class="edge">
<title>sksni&#45;&gt;skpro</title>
<path fill="none" stroke="black" d="M725.97,-146.8C677.14,-128.93 594.18,-98.57 537.13,-77.69"/>
<polygon fill="black" stroke="black" points="538.74,-74.19 528.14,-74.04 536.33,-80.76 538.74,-74.19"/>
</g>
<!-- skabb&#45;&gt;skpro -->
<g id="edge16" class="edge">
<title>skabb&#45;&gt;skpro</title>
<path fill="none" stroke="black" d="M869.5,-290.61C867.33,-257.48 857.7,-183.75 815.12,-144 775.19,-106.71 624.73,-78.04 537.94,-64.18"/>
<polygon fill="black" stroke="black" points="538.58,-60.58 528.16,-62.48 537.5,-67.49 538.58,-60.58"/>
</g>
</g>
</svg>
